<svg width="64" height="64" viewBox="0 0 64 64" fill="none" xmlns="http://www.w3.org/2000/svg">
<path d="M50.6667 0H13.3333C9.79841 0.00423429 6.40949 1.41035 3.90992 3.90992C1.41035 6.40949 0.00423429 9.79841 0 13.3333L0 50.6667C0.00423429 54.2016 1.41035 57.5905 3.90992 60.0901C6.40949 62.5897 9.79841 63.9958 13.3333 64H50.6667C54.2016 63.9958 57.5905 62.5897 60.0901 60.0901C62.5897 57.5905 63.9958 54.2016 64 50.6667V13.3333C63.9958 9.79841 62.5897 6.40949 60.0901 3.90992C57.5905 1.41035 54.2016 0.00423429 50.6667 0V0ZM42.6667 29.3333H34.6667V21.3333H42.6667V29.3333ZM48 21.3333H58.6667V29.3333H48V21.3333ZM34.6667 16V5.33333H42.6667V16H34.6667ZM29.3333 16H21.3333V5.33333H29.3333V16ZM29.3333 21.3333V29.3333H21.3333V21.3333H29.3333ZM16 29.3333H5.33333V21.3333H16V29.3333ZM5.33333 34.6667H16V42.6667H5.33333V34.6667ZM21.3333 34.6667H29.3333V42.6667H21.3333V34.6667ZM29.3333 48V58.6667H21.3333V48H29.3333ZM34.6667 48H42.6667V58.6667H34.6667V48ZM34.6667 42.6667V34.6667H42.6667V42.6667H34.6667ZM48 34.6667H58.6667V42.6667H48V34.6667ZM58.6667 13.3333V16H48V5.33333H50.6667C52.7884 5.33333 54.8232 6.17619 56.3235 7.67648C57.8238 9.17677 58.6667 11.2116 58.6667 13.3333ZM13.3333 5.33333H16V16H5.33333V13.3333C5.33333 11.2116 6.17619 9.17677 7.67648 7.67648C9.17677 6.17619 11.2116 5.33333 13.3333 5.33333ZM5.33333 50.6667V48H16V58.6667H13.3333C11.2116 58.6667 9.17677 57.8238 7.67648 56.3235C6.17619 54.8232 5.33333 52.7884 5.33333 50.6667ZM50.6667 58.6667H48V48H58.6667V50.6667C58.6667 52.7884 57.8238 54.8232 56.3235 56.3235C54.8232 57.8238 52.7884 58.6667 50.6667 58.6667Z" fill="black"/>
<path d="M50.6667 0H13.3333C9.79841 0.00423429 6.40949 1.41035 3.90992 3.90992C1.41035 6.40949 0.00423429 9.79841 0 13.3333L0 50.6667C0.00423429 54.2016 1.41035 57.5905 3.90992 60.0901C6.40949 62.5897 9.79841 63.9958 13.3333 64H50.6667C54.2016 63.9958 57.5905 62.5897 60.0901 60.0901C62.5897 57.5905 63.9958 54.2016 64 50.6667V13.3333C63.9958 9.79841 62.5897 6.40949 60.0901 3.90992C57.5905 1.41035 54.2016 0.00423429 50.6667 0V0ZM42.6667 29.3333H34.6667V21.3333H42.6667V29.3333ZM48 21.3333H58.6667V29.3333H48V21.3333ZM34.6667 16V5.33333H42.6667V16H34.6667ZM29.3333 16H21.3333V5.33333H29.3333V16ZM29.3333 21.3333V29.3333H21.3333V21.3333H29.3333ZM16 29.3333H5.33333V21.3333H16V29.3333ZM5.33333 34.6667H16V42.6667H5.33333V34.6667ZM21.3333 34.6667H29.3333V42.6667H21.3333V34.6667ZM29.3333 48V58.6667H21.3333V48H29.3333ZM34.6667 48H42.6667V58.6667H34.6667V48ZM34.6667 42.6667V34.6667H42.6667V42.6667H34.6667ZM48 34.6667H58.6667V42.6667H48V34.6667ZM58.6667 13.3333V16H48V5.33333H50.6667C52.7884 5.33333 54.8232 6.17619 56.3235 7.67648C57.8238 9.17677 58.6667 11.2116 58.6667 13.3333ZM13.3333 5.33333H16V16H5.33333V13.3333C5.33333 11.2116 6.17619 9.17677 7.67648 7.67648C9.17677 6.17619 11.2116 5.33333 13.3333 5.33333ZM5.33333 50.6667V48H16V58.6667H13.3333C11.2116 58.6667 9.17677 57.8238 7.67648 56.3235C6.17619 54.8232 5.33333 52.7884 5.33333 50.6667ZM50.6667 58.6667H48V48H58.6667V50.6667C58.6667 52.7884 57.8238 54.8232 56.3235 56.3235C54.8232 57.8238 52.7884 58.6667 50.6667 58.6667Z" fill="url(#paint0_linear)"/>
<defs>
<linearGradient id="paint0_linear" x1="0" y1="64" x2="68.382" y2="58.9137" gradientUnits="userSpaceOnUse">
<stop stop-color="#EB9440"/>
<stop offset="0.302083" stop-color="#FA4259"/>
<stop offset="0.651042" stop-color="#CC4CC2"/>
<stop offset="1" stop-color="#7140FF"/>
</linearGradient>
</defs>
</svg>
