<svg width="64" height="64" viewBox="0 0 64 64" fill="none" xmlns="http://www.w3.org/2000/svg">
<path d="M50.6667 0H13.3333C9.79841 0.00423429 6.40949 1.41035 3.90992 3.90992C1.41035 6.40949 0.00423429 9.79841 0 13.3333L0 50.6667C0.00423429 54.2016 1.41035 57.5905 3.90992 60.0901C6.40949 62.5897 9.79841 63.9958 13.3333 64H50.6667C54.2016 63.9958 57.5905 62.5897 60.0901 60.0901C62.5897 57.5905 63.9958 54.2016 64 50.6667V13.3333C63.9958 9.79841 62.5897 6.40949 60.0901 3.90992C57.5905 1.41035 54.2016 0.00423429 50.6667 0V0ZM13.3333 5.33333H50.6667C52.7884 5.33333 54.8232 6.17619 56.3235 7.67648C57.8238 9.17677 58.6667 11.2116 58.6667 13.3333V50.6667C58.6621 51.8546 58.3886 53.0261 57.8667 54.0933L33.432 29.6587C32.1938 28.4202 30.7238 27.4377 29.1059 26.7675C27.488 26.0972 25.7539 25.7522 24.0027 25.7522C22.2514 25.7522 20.5173 26.0972 18.8994 26.7675C17.2815 27.4377 15.8115 28.4202 14.5733 29.6587L5.33333 38.896V13.3333C5.33333 11.2116 6.17619 9.17677 7.67648 7.67648C9.17677 6.17619 11.2116 5.33333 13.3333 5.33333ZM13.3333 58.6667C11.2116 58.6667 9.17677 57.8238 7.67648 56.3235C6.17619 54.8232 5.33333 52.7884 5.33333 50.6667V46.4373L18.3413 33.4293C19.0843 32.6859 19.9664 32.0962 20.9373 31.6938C21.9083 31.2915 22.949 31.0844 24 31.0844C25.051 31.0844 26.0917 31.2915 27.0627 31.6938C28.0336 32.0962 28.9157 32.6859 29.6587 33.4293L54.0933 57.8667C53.0261 58.3886 51.8546 58.6621 50.6667 58.6667H13.3333Z" fill="black"/>
<path d="M50.6667 0H13.3333C9.79841 0.00423429 6.40949 1.41035 3.90992 3.90992C1.41035 6.40949 0.00423429 9.79841 0 13.3333L0 50.6667C0.00423429 54.2016 1.41035 57.5905 3.90992 60.0901C6.40949 62.5897 9.79841 63.9958 13.3333 64H50.6667C54.2016 63.9958 57.5905 62.5897 60.0901 60.0901C62.5897 57.5905 63.9958 54.2016 64 50.6667V13.3333C63.9958 9.79841 62.5897 6.40949 60.0901 3.90992C57.5905 1.41035 54.2016 0.00423429 50.6667 0V0ZM13.3333 5.33333H50.6667C52.7884 5.33333 54.8232 6.17619 56.3235 7.67648C57.8238 9.17677 58.6667 11.2116 58.6667 13.3333V50.6667C58.6621 51.8546 58.3886 53.0261 57.8667 54.0933L33.432 29.6587C32.1938 28.4202 30.7238 27.4377 29.1059 26.7675C27.488 26.0972 25.7539 25.7522 24.0027 25.7522C22.2514 25.7522 20.5173 26.0972 18.8994 26.7675C17.2815 27.4377 15.8115 28.4202 14.5733 29.6587L5.33333 38.896V13.3333C5.33333 11.2116 6.17619 9.17677 7.67648 7.67648C9.17677 6.17619 11.2116 5.33333 13.3333 5.33333ZM13.3333 58.6667C11.2116 58.6667 9.17677 57.8238 7.67648 56.3235C6.17619 54.8232 5.33333 52.7884 5.33333 50.6667V46.4373L18.3413 33.4293C19.0843 32.6859 19.9664 32.0962 20.9373 31.6938C21.9083 31.2915 22.949 31.0844 24 31.0844C25.051 31.0844 26.0917 31.2915 27.0627 31.6938C28.0336 32.0962 28.9157 32.6859 29.6587 33.4293L54.0933 57.8667C53.0261 58.3886 51.8546 58.6621 50.6667 58.6667H13.3333Z" fill="url(#paint0_linear)"/>
<defs>
<linearGradient id="paint0_linear" x1="0" y1="64" x2="68.382" y2="58.9137" gradientUnits="userSpaceOnUse">
<stop stop-color="#EB9440"/>
<stop offset="0.302083" stop-color="#FA4259"/>
<stop offset="0.651042" stop-color="#CC4CC2"/>
<stop offset="1" stop-color="#7140FF"/>
</linearGradient>
</defs>
</svg>
