<svg width="64" height="64" viewBox="0 0 64 64" fill="none" xmlns="http://www.w3.org/2000/svg">
<path d="M50.6667 0H34.6667C31.1317 0.00423429 27.7428 1.41035 25.2433 3.90992C22.7437 6.40949 21.3376 9.79841 21.3333 13.3333V13.6C18.3238 14.2189 15.6196 15.8565 13.6766 18.2367C11.7336 20.6168 10.6705 23.5941 10.6667 26.6667V26.9333C7.6571 27.5523 4.95292 29.1898 3.00991 31.57C1.06691 33.9502 0.00387873 36.9275 0 40L0 50.6667C0.00423429 54.2016 1.41035 57.5905 3.90992 60.0901C6.40949 62.5897 9.79841 63.9958 13.3333 64H29.3333C32.8683 63.9958 36.2572 62.5897 38.7567 60.0901C41.2563 57.5905 42.6624 54.2016 42.6667 50.6667V50.4C45.6762 49.7811 48.3804 48.1435 50.3234 45.7633C52.2664 43.3832 53.3295 40.4059 53.3333 37.3333V37.0667C56.3429 36.4477 59.0471 34.8102 60.9901 32.43C62.9331 30.0498 63.9961 27.0725 64 24V13.3333C63.9958 9.79841 62.5897 6.40949 60.0901 3.90992C57.5905 1.41035 54.2016 0.00423429 50.6667 0V0ZM5.33333 40C5.33333 37.8783 6.17619 35.8434 7.67648 34.3431C9.17677 32.8429 11.2116 32 13.3333 32H29.3333C30.7831 32.0039 32.2044 32.4033 33.444 33.1551C34.6836 33.907 35.6945 34.9828 36.368 36.2667L27.1547 45.5013L25.888 44.224C24.9437 43.2727 23.6747 42.7135 22.3354 42.6586C20.9962 42.6037 19.6856 43.0571 18.6667 43.928L6.344 54.488C5.68847 53.3206 5.34067 52.0055 5.33333 50.6667V40ZM37.3333 50.6667C37.3333 52.7884 36.4905 54.8232 34.9902 56.3235C33.4899 57.8238 31.4551 58.6667 29.3333 58.6667H13.3333C12.3108 58.6645 11.2984 58.4643 10.352 58.0773L22.1013 48L23.3707 49.2827C24.3708 50.2825 25.7271 50.8442 27.1413 50.8442C28.5555 50.8442 29.9119 50.2825 30.912 49.2827L37.3333 42.848V50.6667ZM48 37.3333C47.9932 38.982 47.4771 40.5883 46.5224 41.9325C45.5678 43.2767 44.2211 44.2931 42.6667 44.8427V40C42.6624 36.4651 41.2563 33.0762 38.7567 30.5766C36.2572 28.077 32.8683 26.6709 29.3333 26.6667H16C16 24.5449 16.8429 22.5101 18.3431 21.0098C19.8434 19.5095 21.8783 18.6667 24 18.6667H40C42.1217 18.6667 44.1566 19.5095 45.6569 21.0098C47.1571 22.5101 48 24.5449 48 26.6667V37.3333ZM58.6667 24C58.6598 25.6487 58.1438 27.255 57.1891 28.5992C56.2344 29.9434 54.8878 30.9598 53.3333 31.5093V26.6667C53.3291 23.1317 51.923 19.7428 49.4234 17.2433C46.9239 14.7437 43.5349 13.3376 40 13.3333H26.6667C26.6667 11.2116 27.5095 9.17677 29.0098 7.67648C30.5101 6.17619 32.5449 5.33333 34.6667 5.33333H50.6667C52.7884 5.33333 54.8232 6.17619 56.3235 7.67648C57.8238 9.17677 58.6667 11.2116 58.6667 13.3333V24ZM10.6667 40C10.6667 39.4726 10.8231 38.957 11.1161 38.5185C11.4091 38.0799 11.8256 37.7382 12.3128 37.5363C12.8001 37.3345 13.3363 37.2817 13.8536 37.3846C14.3709 37.4875 14.846 37.7414 15.219 38.1144C15.5919 38.4873 15.8459 38.9625 15.9488 39.4798C16.0517 39.997 15.9988 40.5332 15.797 41.0205C15.5952 41.5078 15.2534 41.9242 14.8149 42.2173C14.3763 42.5103 13.8608 42.6667 13.3333 42.6667C12.6261 42.6667 11.9478 42.3857 11.4477 41.8856C10.9476 41.3855 10.6667 40.7072 10.6667 40Z" fill="black"/>
<path d="M50.6667 0H34.6667C31.1317 0.00423429 27.7428 1.41035 25.2433 3.90992C22.7437 6.40949 21.3376 9.79841 21.3333 13.3333V13.6C18.3238 14.2189 15.6196 15.8565 13.6766 18.2367C11.7336 20.6168 10.6705 23.5941 10.6667 26.6667V26.9333C7.6571 27.5523 4.95292 29.1898 3.00991 31.57C1.06691 33.9502 0.00387873 36.9275 0 40L0 50.6667C0.00423429 54.2016 1.41035 57.5905 3.90992 60.0901C6.40949 62.5897 9.79841 63.9958 13.3333 64H29.3333C32.8683 63.9958 36.2572 62.5897 38.7567 60.0901C41.2563 57.5905 42.6624 54.2016 42.6667 50.6667V50.4C45.6762 49.7811 48.3804 48.1435 50.3234 45.7633C52.2664 43.3832 53.3295 40.4059 53.3333 37.3333V37.0667C56.3429 36.4477 59.0471 34.8102 60.9901 32.43C62.9331 30.0498 63.9961 27.0725 64 24V13.3333C63.9958 9.79841 62.5897 6.40949 60.0901 3.90992C57.5905 1.41035 54.2016 0.00423429 50.6667 0V0ZM5.33333 40C5.33333 37.8783 6.17619 35.8434 7.67648 34.3431C9.17677 32.8429 11.2116 32 13.3333 32H29.3333C30.7831 32.0039 32.2044 32.4033 33.444 33.1551C34.6836 33.907 35.6945 34.9828 36.368 36.2667L27.1547 45.5013L25.888 44.224C24.9437 43.2727 23.6747 42.7135 22.3354 42.6586C20.9962 42.6037 19.6856 43.0571 18.6667 43.928L6.344 54.488C5.68847 53.3206 5.34067 52.0055 5.33333 50.6667V40ZM37.3333 50.6667C37.3333 52.7884 36.4905 54.8232 34.9902 56.3235C33.4899 57.8238 31.4551 58.6667 29.3333 58.6667H13.3333C12.3108 58.6645 11.2984 58.4643 10.352 58.0773L22.1013 48L23.3707 49.2827C24.3708 50.2825 25.7271 50.8442 27.1413 50.8442C28.5555 50.8442 29.9119 50.2825 30.912 49.2827L37.3333 42.848V50.6667ZM48 37.3333C47.9932 38.982 47.4771 40.5883 46.5224 41.9325C45.5678 43.2767 44.2211 44.2931 42.6667 44.8427V40C42.6624 36.4651 41.2563 33.0762 38.7567 30.5766C36.2572 28.077 32.8683 26.6709 29.3333 26.6667H16C16 24.5449 16.8429 22.5101 18.3431 21.0098C19.8434 19.5095 21.8783 18.6667 24 18.6667H40C42.1217 18.6667 44.1566 19.5095 45.6569 21.0098C47.1571 22.5101 48 24.5449 48 26.6667V37.3333ZM58.6667 24C58.6598 25.6487 58.1438 27.255 57.1891 28.5992C56.2344 29.9434 54.8878 30.9598 53.3333 31.5093V26.6667C53.3291 23.1317 51.923 19.7428 49.4234 17.2433C46.9239 14.7437 43.5349 13.3376 40 13.3333H26.6667C26.6667 11.2116 27.5095 9.17677 29.0098 7.67648C30.5101 6.17619 32.5449 5.33333 34.6667 5.33333H50.6667C52.7884 5.33333 54.8232 6.17619 56.3235 7.67648C57.8238 9.17677 58.6667 11.2116 58.6667 13.3333V24ZM10.6667 40C10.6667 39.4726 10.8231 38.957 11.1161 38.5185C11.4091 38.0799 11.8256 37.7382 12.3128 37.5363C12.8001 37.3345 13.3363 37.2817 13.8536 37.3846C14.3709 37.4875 14.846 37.7414 15.219 38.1144C15.5919 38.4873 15.8459 38.9625 15.9488 39.4798C16.0517 39.997 15.9988 40.5332 15.797 41.0205C15.5952 41.5078 15.2534 41.9242 14.8149 42.2173C14.3763 42.5103 13.8608 42.6667 13.3333 42.6667C12.6261 42.6667 11.9478 42.3857 11.4477 41.8856C10.9476 41.3855 10.6667 40.7072 10.6667 40Z" fill="url(#paint0_linear)"/>
<defs>
<linearGradient id="paint0_linear" x1="0" y1="64" x2="68.382" y2="58.9137" gradientUnits="userSpaceOnUse">
<stop stop-color="#EB9440"/>
<stop offset="0.302083" stop-color="#FA4259"/>
<stop offset="0.651042" stop-color="#CC4CC2"/>
<stop offset="1" stop-color="#7140FF"/>
</linearGradient>
</defs>
</svg>
