<svg width="64" height="64" viewBox="0 0 64 64" fill="none" xmlns="http://www.w3.org/2000/svg">
<path d="M40 53.3333H13.3333C9.79841 53.3291 6.40949 51.923 3.90992 49.4234C1.41035 46.9239 0.00423429 43.5349 0 40L0 13.3333C0.00423429 9.79841 1.41035 6.40949 3.90992 3.90992C6.40949 1.41035 9.79841 0.00423429 13.3333 0L40 0C43.5349 0.00423429 46.9239 1.41035 49.4234 3.90992C51.923 6.40949 53.3291 9.79841 53.3333 13.3333V40C53.3291 43.5349 51.923 46.9239 49.4234 49.4234C46.9239 51.923 43.5349 53.3291 40 53.3333ZM13.3333 5.33333C11.2116 5.33333 9.17677 6.17619 7.67648 7.67648C6.17619 9.17677 5.33333 11.2116 5.33333 13.3333V40C5.33333 42.1217 6.17619 44.1566 7.67648 45.6569C9.17677 47.1571 11.2116 48 13.3333 48H40C42.1217 48 44.1566 47.1571 45.6569 45.6569C47.1571 44.1566 48 42.1217 48 40V13.3333C48 11.2116 47.1571 9.17677 45.6569 7.67648C44.1566 6.17619 42.1217 5.33333 40 5.33333H13.3333ZM64 50.6667V16C64 15.2928 63.7191 14.6145 63.219 14.1144C62.7189 13.6143 62.0406 13.3333 61.3333 13.3333C60.6261 13.3333 59.9478 13.6143 59.4477 14.1144C58.9476 14.6145 58.6667 15.2928 58.6667 16V50.6667C58.6667 52.7884 57.8238 54.8232 56.3235 56.3235C54.8232 57.8238 52.7884 58.6667 50.6667 58.6667H16C15.2928 58.6667 14.6145 58.9476 14.1144 59.4477C13.6143 59.9478 13.3333 60.6261 13.3333 61.3333C13.3333 62.0406 13.6143 62.7189 14.1144 63.219C14.6145 63.7191 15.2928 64 16 64H50.6667C54.2016 63.9958 57.5905 62.5897 60.0901 60.0901C62.5897 57.5905 63.9958 54.2016 64 50.6667Z" fill="black"/>
<path d="M40 53.3333H13.3333C9.79841 53.3291 6.40949 51.923 3.90992 49.4234C1.41035 46.9239 0.00423429 43.5349 0 40L0 13.3333C0.00423429 9.79841 1.41035 6.40949 3.90992 3.90992C6.40949 1.41035 9.79841 0.00423429 13.3333 0L40 0C43.5349 0.00423429 46.9239 1.41035 49.4234 3.90992C51.923 6.40949 53.3291 9.79841 53.3333 13.3333V40C53.3291 43.5349 51.923 46.9239 49.4234 49.4234C46.9239 51.923 43.5349 53.3291 40 53.3333ZM13.3333 5.33333C11.2116 5.33333 9.17677 6.17619 7.67648 7.67648C6.17619 9.17677 5.33333 11.2116 5.33333 13.3333V40C5.33333 42.1217 6.17619 44.1566 7.67648 45.6569C9.17677 47.1571 11.2116 48 13.3333 48H40C42.1217 48 44.1566 47.1571 45.6569 45.6569C47.1571 44.1566 48 42.1217 48 40V13.3333C48 11.2116 47.1571 9.17677 45.6569 7.67648C44.1566 6.17619 42.1217 5.33333 40 5.33333H13.3333ZM64 50.6667V16C64 15.2928 63.7191 14.6145 63.219 14.1144C62.7189 13.6143 62.0406 13.3333 61.3333 13.3333C60.6261 13.3333 59.9478 13.6143 59.4477 14.1144C58.9476 14.6145 58.6667 15.2928 58.6667 16V50.6667C58.6667 52.7884 57.8238 54.8232 56.3235 56.3235C54.8232 57.8238 52.7884 58.6667 50.6667 58.6667H16C15.2928 58.6667 14.6145 58.9476 14.1144 59.4477C13.6143 59.9478 13.3333 60.6261 13.3333 61.3333C13.3333 62.0406 13.6143 62.7189 14.1144 63.219C14.6145 63.7191 15.2928 64 16 64H50.6667C54.2016 63.9958 57.5905 62.5897 60.0901 60.0901C62.5897 57.5905 63.9958 54.2016 64 50.6667Z" fill="url(#paint0_linear)"/>
<defs>
<linearGradient id="paint0_linear" x1="0" y1="64" x2="68.382" y2="58.9137" gradientUnits="userSpaceOnUse">
<stop stop-color="#EB9440"/>
<stop offset="0.302083" stop-color="#FA4259"/>
<stop offset="0.651042" stop-color="#CC4CC2"/>
<stop offset="1" stop-color="#7140FF"/>
</linearGradient>
</defs>
</svg>
