<svg width="54" height="64" viewBox="0 0 54 64" fill="none" xmlns="http://www.w3.org/2000/svg">
<path d="M27.0003 64C24.7549 64.0115 22.5393 63.4848 20.5392 62.4641C18.5391 61.4434 16.8126 59.9584 15.5043 58.1333C5.34168 44.1147 0.187012 33.576 0.187012 26.808C0.187012 19.6967 3.01198 12.8766 8.04045 7.8481C13.0689 2.81963 19.889 -0.00534058 27.0003 -0.00534058C34.1117 -0.00534058 40.9318 2.81963 45.9602 7.8481C50.9887 12.8766 53.8137 19.6967 53.8137 26.808C53.8137 33.576 48.659 44.1147 38.4963 58.1333C37.1881 59.9584 35.4616 61.4434 33.4615 62.4641C31.4614 63.4848 29.2458 64.0115 27.0003 64ZM27.0003 5.81599C21.4335 5.82235 16.0964 8.0366 12.16 11.973C8.22362 15.9094 6.00936 21.2464 6.00301 26.8133C6.00301 32.1733 11.051 42.0853 20.2137 54.7227C20.9915 55.7941 22.012 56.6661 23.1916 57.2674C24.3712 57.8687 25.6764 58.1821 27.0003 58.1821C28.3243 58.1821 29.6295 57.8687 30.8091 57.2674C31.9887 56.6661 33.0092 55.7941 33.787 54.7227C42.9497 42.0853 47.9977 32.1733 47.9977 26.8133C47.9913 21.2464 45.7771 15.9094 41.8407 11.973C37.9043 8.0366 32.5672 5.82235 27.0003 5.81599Z" fill="black"/>
<path d="M27.0003 64C24.7549 64.0115 22.5393 63.4848 20.5392 62.4641C18.5391 61.4434 16.8126 59.9584 15.5043 58.1333C5.34168 44.1147 0.187012 33.576 0.187012 26.808C0.187012 19.6967 3.01198 12.8766 8.04045 7.8481C13.0689 2.81963 19.889 -0.00534058 27.0003 -0.00534058C34.1117 -0.00534058 40.9318 2.81963 45.9602 7.8481C50.9887 12.8766 53.8137 19.6967 53.8137 26.808C53.8137 33.576 48.659 44.1147 38.4963 58.1333C37.1881 59.9584 35.4616 61.4434 33.4615 62.4641C31.4614 63.4848 29.2458 64.0115 27.0003 64ZM27.0003 5.81599C21.4335 5.82235 16.0964 8.0366 12.16 11.973C8.22362 15.9094 6.00936 21.2464 6.00301 26.8133C6.00301 32.1733 11.051 42.0853 20.2137 54.7227C20.9915 55.7941 22.012 56.6661 23.1916 57.2674C24.3712 57.8687 25.6764 58.1821 27.0003 58.1821C28.3243 58.1821 29.6295 57.8687 30.8091 57.2674C31.9887 56.6661 33.0092 55.7941 33.787 54.7227C42.9497 42.0853 47.9977 32.1733 47.9977 26.8133C47.9913 21.2464 45.7771 15.9094 41.8407 11.973C37.9043 8.0366 32.5672 5.82235 27.0003 5.81599Z" fill="url(#paint0_linear)"/>
<defs>
<linearGradient id="paint0_linear" x1="0.187012" y1="64.0002" x2="57.5796" y2="60.4235" gradientUnits="userSpaceOnUse">
<stop stop-color="#EB9440"/>
<stop offset="0.302083" stop-color="#FA4259"/>
<stop offset="0.651042" stop-color="#CC4CC2"/>
<stop offset="1" stop-color="#7140FF"/>
</linearGradient>
</defs>
</svg>
