<svg width="64" height="64" viewBox="0 0 64 64" fill="none" xmlns="http://www.w3.org/2000/svg">
<path d="M2.66667 16H61.3333C62.0406 16 62.7189 15.719 63.219 15.2189C63.7191 14.7188 64 14.0406 64 13.3333C64 12.6261 63.7191 11.9478 63.219 11.4477C62.7189 10.9476 62.0406 10.6667 61.3333 10.6667H2.66667C1.95942 10.6667 1.28115 10.9476 0.781049 11.4477C0.280952 11.9478 0 12.6261 0 13.3333C0 14.0406 0.280952 14.7188 0.781049 15.2189C1.28115 15.719 1.95942 16 2.66667 16Z" fill="black"/>
<path d="M2.66667 16H61.3333C62.0406 16 62.7189 15.719 63.219 15.2189C63.7191 14.7188 64 14.0406 64 13.3333C64 12.6261 63.7191 11.9478 63.219 11.4477C62.7189 10.9476 62.0406 10.6667 61.3333 10.6667H2.66667C1.95942 10.6667 1.28115 10.9476 0.781049 11.4477C0.280952 11.9478 0 12.6261 0 13.3333C0 14.0406 0.280952 14.7188 0.781049 15.2189C1.28115 15.719 1.95942 16 2.66667 16Z" fill="url(#paint0_linear)"/>
<path d="M2.66667 29.3333H40C40.7072 29.3333 41.3855 29.0524 41.8856 28.5523C42.3857 28.0522 42.6667 27.3739 42.6667 26.6667C42.6667 25.9594 42.3857 25.2811 41.8856 24.781C41.3855 24.281 40.7072 24 40 24H2.66667C1.95942 24 1.28115 24.281 0.781049 24.781C0.280952 25.2811 0 25.9594 0 26.6667C0 27.3739 0.280952 28.0522 0.781049 28.5523C1.28115 29.0524 1.95942 29.3333 2.66667 29.3333Z" fill="black"/>
<path d="M2.66667 29.3333H40C40.7072 29.3333 41.3855 29.0524 41.8856 28.5523C42.3857 28.0522 42.6667 27.3739 42.6667 26.6667C42.6667 25.9594 42.3857 25.2811 41.8856 24.781C41.3855 24.281 40.7072 24 40 24H2.66667C1.95942 24 1.28115 24.281 0.781049 24.781C0.280952 25.2811 0 25.9594 0 26.6667C0 27.3739 0.280952 28.0522 0.781049 28.5523C1.28115 29.0524 1.95942 29.3333 2.66667 29.3333Z" fill="url(#paint1_linear)"/>
<path d="M40 50.6667H2.66667C1.95942 50.6667 1.28115 50.9476 0.781049 51.4477C0.280952 51.9478 0 52.6261 0 53.3333C0 54.0406 0.280952 54.7189 0.781049 55.219C1.28115 55.7191 1.95942 56 2.66667 56H40C40.7072 56 41.3855 55.7191 41.8856 55.219C42.3857 54.7189 42.6667 54.0406 42.6667 53.3333C42.6667 52.6261 42.3857 51.9478 41.8856 51.4477C41.3855 50.9476 40.7072 50.6667 40 50.6667Z" fill="black"/>
<path d="M40 50.6667H2.66667C1.95942 50.6667 1.28115 50.9476 0.781049 51.4477C0.280952 51.9478 0 52.6261 0 53.3333C0 54.0406 0.280952 54.7189 0.781049 55.219C1.28115 55.7191 1.95942 56 2.66667 56H40C40.7072 56 41.3855 55.7191 41.8856 55.219C42.3857 54.7189 42.6667 54.0406 42.6667 53.3333C42.6667 52.6261 42.3857 51.9478 41.8856 51.4477C41.3855 50.9476 40.7072 50.6667 40 50.6667Z" fill="url(#paint2_linear)"/>
<path d="M61.3333 37.3333H2.66667C1.95942 37.3333 1.28115 37.6143 0.781049 38.1144C0.280952 38.6145 0 39.2928 0 40C0 40.7073 0.280952 41.3855 0.781049 41.8856C1.28115 42.3857 1.95942 42.6667 2.66667 42.6667H61.3333C62.0406 42.6667 62.7189 42.3857 63.219 41.8856C63.7191 41.3855 64 40.7073 64 40C64 39.2928 63.7191 38.6145 63.219 38.1144C62.7189 37.6143 62.0406 37.3333 61.3333 37.3333Z" fill="black"/>
<path d="M61.3333 37.3333H2.66667C1.95942 37.3333 1.28115 37.6143 0.781049 38.1144C0.280952 38.6145 0 39.2928 0 40C0 40.7073 0.280952 41.3855 0.781049 41.8856C1.28115 42.3857 1.95942 42.6667 2.66667 42.6667H61.3333C62.0406 42.6667 62.7189 42.3857 63.219 41.8856C63.7191 41.3855 64 40.7073 64 40C64 39.2928 63.7191 38.6145 63.219 38.1144C62.7189 37.6143 62.0406 37.3333 61.3333 37.3333Z" fill="url(#paint3_linear)"/>
<defs>
<linearGradient id="paint0_linear" x1="0" y1="16" x2="38.271" y2="-18.1593" gradientUnits="userSpaceOnUse">
<stop stop-color="#EB9440"/>
<stop offset="0.302083" stop-color="#FA4259"/>
<stop offset="0.651042" stop-color="#CC4CC2"/>
<stop offset="1" stop-color="#7140FF"/>
</linearGradient>
<linearGradient id="paint1_linear" x1="0" y1="29.3333" x2="33.8535" y2="9.18906" gradientUnits="userSpaceOnUse">
<stop stop-color="#EB9440"/>
<stop offset="0.302083" stop-color="#FA4259"/>
<stop offset="0.651042" stop-color="#CC4CC2"/>
<stop offset="1" stop-color="#7140FF"/>
</linearGradient>
<linearGradient id="paint2_linear" x1="0" y1="56" x2="33.8536" y2="35.8558" gradientUnits="userSpaceOnUse">
<stop stop-color="#EB9440"/>
<stop offset="0.302083" stop-color="#FA4259"/>
<stop offset="0.651042" stop-color="#CC4CC2"/>
<stop offset="1" stop-color="#7140FF"/>
</linearGradient>
<linearGradient id="paint3_linear" x1="0" y1="42.6667" x2="38.2711" y2="8.50741" gradientUnits="userSpaceOnUse">
<stop stop-color="#EB9440"/>
<stop offset="0.302083" stop-color="#FA4259"/>
<stop offset="0.651042" stop-color="#CC4CC2"/>
<stop offset="1" stop-color="#7140FF"/>
</linearGradient>
</defs>
</svg>
