<svg width="64" height="64" viewBox="0 0 64 64" fill="none" xmlns="http://www.w3.org/2000/svg">
<path d="M18.6667 0H10.6667C7.83769 0 5.12458 1.12381 3.12419 3.12419C1.12381 5.12458 0 7.83769 0 10.6667L0 18.6667C0 21.4956 1.12381 24.2088 3.12419 26.2091C5.12458 28.2095 7.83769 29.3333 10.6667 29.3333H18.6667C21.4956 29.3333 24.2088 28.2095 26.2091 26.2091C28.2095 24.2088 29.3333 21.4956 29.3333 18.6667V10.6667C29.3333 7.83769 28.2095 5.12458 26.2091 3.12419C24.2088 1.12381 21.4956 0 18.6667 0V0ZM24 18.6667C24 20.0812 23.4381 21.4377 22.4379 22.4379C21.4377 23.4381 20.0812 24 18.6667 24H10.6667C9.25218 24 7.89562 23.4381 6.89543 22.4379C5.89524 21.4377 5.33333 20.0812 5.33333 18.6667V10.6667C5.33333 9.25218 5.89524 7.89562 6.89543 6.89543C7.89562 5.89524 9.25218 5.33333 10.6667 5.33333H18.6667C20.0812 5.33333 21.4377 5.89524 22.4379 6.89543C23.4381 7.89562 24 9.25218 24 10.6667V18.6667Z" fill="black"/>
<path d="M18.6667 0H10.6667C7.83769 0 5.12458 1.12381 3.12419 3.12419C1.12381 5.12458 0 7.83769 0 10.6667L0 18.6667C0 21.4956 1.12381 24.2088 3.12419 26.2091C5.12458 28.2095 7.83769 29.3333 10.6667 29.3333H18.6667C21.4956 29.3333 24.2088 28.2095 26.2091 26.2091C28.2095 24.2088 29.3333 21.4956 29.3333 18.6667V10.6667C29.3333 7.83769 28.2095 5.12458 26.2091 3.12419C24.2088 1.12381 21.4956 0 18.6667 0V0ZM24 18.6667C24 20.0812 23.4381 21.4377 22.4379 22.4379C21.4377 23.4381 20.0812 24 18.6667 24H10.6667C9.25218 24 7.89562 23.4381 6.89543 22.4379C5.89524 21.4377 5.33333 20.0812 5.33333 18.6667V10.6667C5.33333 9.25218 5.89524 7.89562 6.89543 6.89543C7.89562 5.89524 9.25218 5.33333 10.6667 5.33333H18.6667C20.0812 5.33333 21.4377 5.89524 22.4379 6.89543C23.4381 7.89562 24 9.25218 24 10.6667V18.6667Z" fill="url(#paint0_linear)"/>
<path d="M53.3332 0H45.3332C42.5042 0 39.7911 1.12381 37.7907 3.12419C35.7903 5.12458 34.6665 7.83769 34.6665 10.6667V18.6667C34.6665 21.4956 35.7903 24.2088 37.7907 26.2091C39.7911 28.2095 42.5042 29.3333 45.3332 29.3333H53.3332C56.1621 29.3333 58.8752 28.2095 60.8756 26.2091C62.876 24.2088 63.9998 21.4956 63.9998 18.6667V10.6667C63.9998 7.83769 62.876 5.12458 60.8756 3.12419C58.8752 1.12381 56.1621 0 53.3332 0V0ZM58.6665 18.6667C58.6665 20.0812 58.1046 21.4377 57.1044 22.4379C56.1042 23.4381 54.7477 24 53.3332 24H45.3332C43.9187 24 42.5621 23.4381 41.5619 22.4379C40.5617 21.4377 39.9998 20.0812 39.9998 18.6667V10.6667C39.9998 9.25218 40.5617 7.89562 41.5619 6.89543C42.5621 5.89524 43.9187 5.33333 45.3332 5.33333H53.3332C54.7477 5.33333 56.1042 5.89524 57.1044 6.89543C58.1046 7.89562 58.6665 9.25218 58.6665 10.6667V18.6667Z" fill="black"/>
<path d="M53.3332 0H45.3332C42.5042 0 39.7911 1.12381 37.7907 3.12419C35.7903 5.12458 34.6665 7.83769 34.6665 10.6667V18.6667C34.6665 21.4956 35.7903 24.2088 37.7907 26.2091C39.7911 28.2095 42.5042 29.3333 45.3332 29.3333H53.3332C56.1621 29.3333 58.8752 28.2095 60.8756 26.2091C62.876 24.2088 63.9998 21.4956 63.9998 18.6667V10.6667C63.9998 7.83769 62.876 5.12458 60.8756 3.12419C58.8752 1.12381 56.1621 0 53.3332 0V0ZM58.6665 18.6667C58.6665 20.0812 58.1046 21.4377 57.1044 22.4379C56.1042 23.4381 54.7477 24 53.3332 24H45.3332C43.9187 24 42.5621 23.4381 41.5619 22.4379C40.5617 21.4377 39.9998 20.0812 39.9998 18.6667V10.6667C39.9998 9.25218 40.5617 7.89562 41.5619 6.89543C42.5621 5.89524 43.9187 5.33333 45.3332 5.33333H53.3332C54.7477 5.33333 56.1042 5.89524 57.1044 6.89543C58.1046 7.89562 58.6665 9.25218 58.6665 10.6667V18.6667Z" fill="url(#paint1_linear)"/>
<path d="M18.6667 34.6667H10.6667C7.83769 34.6667 5.12458 35.7905 3.12419 37.7909C1.12381 39.7912 0 42.5044 0 45.3333L0 53.3333C0 56.1623 1.12381 58.8754 3.12419 60.8758C5.12458 62.8762 7.83769 64 10.6667 64H18.6667C21.4956 64 24.2088 62.8762 26.2091 60.8758C28.2095 58.8754 29.3333 56.1623 29.3333 53.3333V45.3333C29.3333 42.5044 28.2095 39.7912 26.2091 37.7909C24.2088 35.7905 21.4956 34.6667 18.6667 34.6667ZM24 53.3333C24 54.7478 23.4381 56.1044 22.4379 57.1046C21.4377 58.1048 20.0812 58.6667 18.6667 58.6667H10.6667C9.25218 58.6667 7.89562 58.1048 6.89543 57.1046C5.89524 56.1044 5.33333 54.7478 5.33333 53.3333V45.3333C5.33333 43.9188 5.89524 42.5623 6.89543 41.5621C7.89562 40.5619 9.25218 40 10.6667 40H18.6667C20.0812 40 21.4377 40.5619 22.4379 41.5621C23.4381 42.5623 24 43.9188 24 45.3333V53.3333Z" fill="black"/>
<path d="M18.6667 34.6667H10.6667C7.83769 34.6667 5.12458 35.7905 3.12419 37.7909C1.12381 39.7912 0 42.5044 0 45.3333L0 53.3333C0 56.1623 1.12381 58.8754 3.12419 60.8758C5.12458 62.8762 7.83769 64 10.6667 64H18.6667C21.4956 64 24.2088 62.8762 26.2091 60.8758C28.2095 58.8754 29.3333 56.1623 29.3333 53.3333V45.3333C29.3333 42.5044 28.2095 39.7912 26.2091 37.7909C24.2088 35.7905 21.4956 34.6667 18.6667 34.6667ZM24 53.3333C24 54.7478 23.4381 56.1044 22.4379 57.1046C21.4377 58.1048 20.0812 58.6667 18.6667 58.6667H10.6667C9.25218 58.6667 7.89562 58.1048 6.89543 57.1046C5.89524 56.1044 5.33333 54.7478 5.33333 53.3333V45.3333C5.33333 43.9188 5.89524 42.5623 6.89543 41.5621C7.89562 40.5619 9.25218 40 10.6667 40H18.6667C20.0812 40 21.4377 40.5619 22.4379 41.5621C23.4381 42.5623 24 43.9188 24 45.3333V53.3333Z" fill="url(#paint2_linear)"/>
<path d="M53.3332 34.6667H45.3332C42.5042 34.6667 39.7911 35.7905 37.7907 37.7909C35.7903 39.7912 34.6665 42.5044 34.6665 45.3333V53.3333C34.6665 56.1623 35.7903 58.8754 37.7907 60.8758C39.7911 62.8762 42.5042 64 45.3332 64H53.3332C56.1621 64 58.8752 62.8762 60.8756 60.8758C62.876 58.8754 63.9998 56.1623 63.9998 53.3333V45.3333C63.9998 42.5044 62.876 39.7912 60.8756 37.7909C58.8752 35.7905 56.1621 34.6667 53.3332 34.6667ZM58.6665 53.3333C58.6665 54.7478 58.1046 56.1044 57.1044 57.1046C56.1042 58.1048 54.7477 58.6667 53.3332 58.6667H45.3332C43.9187 58.6667 42.5621 58.1048 41.5619 57.1046C40.5617 56.1044 39.9998 54.7478 39.9998 53.3333V45.3333C39.9998 43.9188 40.5617 42.5623 41.5619 41.5621C42.5621 40.5619 43.9187 40 45.3332 40H53.3332C54.7477 40 56.1042 40.5619 57.1044 41.5621C58.1046 42.5623 58.6665 43.9188 58.6665 45.3333V53.3333Z" fill="black"/>
<path d="M53.3332 34.6667H45.3332C42.5042 34.6667 39.7911 35.7905 37.7907 37.7909C35.7903 39.7912 34.6665 42.5044 34.6665 45.3333V53.3333C34.6665 56.1623 35.7903 58.8754 37.7907 60.8758C39.7911 62.8762 42.5042 64 45.3332 64H53.3332C56.1621 64 58.8752 62.8762 60.8756 60.8758C62.876 58.8754 63.9998 56.1623 63.9998 53.3333V45.3333C63.9998 42.5044 62.876 39.7912 60.8756 37.7909C58.8752 35.7905 56.1621 34.6667 53.3332 34.6667ZM58.6665 53.3333C58.6665 54.7478 58.1046 56.1044 57.1044 57.1046C56.1042 58.1048 54.7477 58.6667 53.3332 58.6667H45.3332C43.9187 58.6667 42.5621 58.1048 41.5619 57.1046C40.5617 56.1044 39.9998 54.7478 39.9998 53.3333V45.3333C39.9998 43.9188 40.5617 42.5623 41.5619 41.5621C42.5621 40.5619 43.9187 40 45.3332 40H53.3332C54.7477 40 56.1042 40.5619 57.1044 41.5621C58.1046 42.5623 58.6665 43.9188 58.6665 45.3333V53.3333Z" fill="url(#paint3_linear)"/>
<defs>
<linearGradient id="paint0_linear" x1="0" y1="29.3333" x2="31.3418" y2="27.0021" gradientUnits="userSpaceOnUse">
<stop stop-color="#EB9440"/>
<stop offset="0.302083" stop-color="#FA4259"/>
<stop offset="0.651042" stop-color="#CC4CC2"/>
<stop offset="1" stop-color="#7140FF"/>
</linearGradient>
<linearGradient id="paint1_linear" x1="34.6665" y1="29.3333" x2="66.0082" y2="27.0021" gradientUnits="userSpaceOnUse">
<stop stop-color="#EB9440"/>
<stop offset="0.302083" stop-color="#FA4259"/>
<stop offset="0.651042" stop-color="#CC4CC2"/>
<stop offset="1" stop-color="#7140FF"/>
</linearGradient>
<linearGradient id="paint2_linear" x1="0" y1="64" x2="31.3418" y2="61.6688" gradientUnits="userSpaceOnUse">
<stop stop-color="#EB9440"/>
<stop offset="0.302083" stop-color="#FA4259"/>
<stop offset="0.651042" stop-color="#CC4CC2"/>
<stop offset="1" stop-color="#7140FF"/>
</linearGradient>
<linearGradient id="paint3_linear" x1="34.6665" y1="64" x2="66.0082" y2="61.6688" gradientUnits="userSpaceOnUse">
<stop stop-color="#EB9440"/>
<stop offset="0.302083" stop-color="#FA4259"/>
<stop offset="0.651042" stop-color="#CC4CC2"/>
<stop offset="1" stop-color="#7140FF"/>
</linearGradient>
</defs>
</svg>
