<svg width="64" height="64" viewBox="0 0 64 64" fill="none" xmlns="http://www.w3.org/2000/svg">
<g clip-path="url(#clip0)">
<path d="M51.5547 39.112C49.5384 39.1136 47.5529 39.6059 45.7693 40.5462C43.9858 41.4865 42.4578 42.8467 41.3173 44.5093L23.96 36.672C25.1928 33.695 25.1976 30.3512 23.9733 27.3707L41.3066 19.4933C42.997 21.938 45.5075 23.6959 48.3829 24.4481C51.2583 25.2003 54.308 24.8971 56.979 23.5933C59.6499 22.2896 61.7651 20.0717 62.9409 17.342C64.1167 14.6124 64.2752 11.5517 63.3876 8.71512C62.5001 5.87859 60.6253 3.45411 58.1033 1.88147C55.5813 0.308826 52.5791 -0.307818 49.6414 0.143392C46.7038 0.594601 44.0251 2.08378 42.0913 4.3408C40.1575 6.59782 39.0967 9.47318 39.1013 12.4453C39.1126 13.1488 39.184 13.85 39.3147 14.5413L20.888 22.9147C19.1182 21.2566 16.9027 20.1516 14.5135 19.7354C12.1244 19.3192 9.66566 19.6099 7.43947 20.5719C5.21329 21.5339 3.31658 23.1252 1.98237 25.1503C0.648162 27.1754 -0.0654423 29.5462 -0.0707707 31.9713C-0.0760991 34.3965 0.62708 36.7703 1.95238 38.8013C3.27768 40.8323 5.16737 42.4319 7.38931 43.4037C9.61124 44.3754 12.0686 44.677 14.4596 44.2713C16.8506 43.8656 19.071 42.7703 20.848 41.12L39.3227 49.4613C39.1943 50.152 39.1239 50.8523 39.112 51.5547C39.1115 54.0164 39.841 56.4229 41.2083 58.4699C42.5756 60.517 44.5193 62.1125 46.7935 63.0548C49.0677 63.9971 51.5702 64.2438 53.9846 63.7637C56.399 63.2836 58.6168 62.0982 60.3575 60.3575C62.0982 58.6169 63.2835 56.3991 63.7636 53.9847C64.2438 51.5702 63.9971 49.0677 63.0548 46.7935C62.1125 44.5193 60.5169 42.5756 58.4699 41.2083C56.4229 39.841 54.0163 39.1115 51.5547 39.112ZM51.5547 5.33332C52.9614 5.3328 54.3367 5.74946 55.5066 6.53062C56.6765 7.31177 57.5885 8.42233 58.1272 9.72183C58.6659 11.0213 58.8071 12.4514 58.533 13.8312C58.2589 15.2109 57.5817 16.4784 56.5872 17.4733C55.5927 18.4682 54.3254 19.1458 52.9458 19.4205C51.5661 19.6951 50.136 19.5544 48.8363 19.0162C47.5366 18.478 46.4257 17.5664 45.6441 16.3968C44.8625 15.2272 44.4453 13.8521 44.4453 12.4453C44.4467 10.56 45.1961 8.75226 46.529 7.41888C47.8619 6.08551 49.6693 5.33544 51.5547 5.33332ZM12.4453 39.112C11.0386 39.1125 9.66329 38.6959 8.49338 37.9147C7.32346 37.1336 6.41148 36.023 5.87278 34.7235C5.33408 33.424 5.19286 31.9939 5.46698 30.6142C5.7411 29.2344 6.41824 27.9669 7.41276 26.972C8.40729 25.9771 9.67452 25.2995 11.0542 25.0248C12.4339 24.7502 13.864 24.8909 15.1637 25.4291C16.4634 25.9673 17.5743 26.8789 18.3559 28.0485C19.1375 29.2181 19.5547 30.5933 19.5547 32C19.5525 33.8851 18.8029 35.6924 17.4702 37.0257C16.1375 38.3589 14.3304 39.1092 12.4453 39.112ZM51.5547 58.6667C50.148 58.6667 48.773 58.2496 47.6034 57.4681C46.4339 56.6866 45.5223 55.5759 44.984 54.2763C44.4457 52.9768 44.3049 51.5468 44.5793 50.1672C44.8537 48.7876 45.5311 47.5204 46.5257 46.5257C47.5203 45.5311 48.7876 44.8537 50.1672 44.5793C51.5468 44.3049 52.9767 44.4458 54.2763 44.984C55.5758 45.5223 56.6866 46.4339 57.4681 47.6035C58.2495 48.773 58.6667 50.1481 58.6667 51.5547C58.6652 53.4405 57.9155 55.2486 56.582 56.5821C55.2486 57.9155 53.4404 58.6653 51.5547 58.6667Z" fill="black"/>
<path d="M51.5547 39.112C49.5384 39.1136 47.5529 39.6059 45.7693 40.5462C43.9858 41.4865 42.4578 42.8467 41.3173 44.5093L23.96 36.672C25.1928 33.695 25.1976 30.3512 23.9733 27.3707L41.3066 19.4933C42.997 21.938 45.5075 23.6959 48.3829 24.4481C51.2583 25.2003 54.308 24.8971 56.979 23.5933C59.6499 22.2896 61.7651 20.0717 62.9409 17.342C64.1167 14.6124 64.2752 11.5517 63.3876 8.71512C62.5001 5.87859 60.6253 3.45411 58.1033 1.88147C55.5813 0.308826 52.5791 -0.307818 49.6414 0.143392C46.7038 0.594601 44.0251 2.08378 42.0913 4.3408C40.1575 6.59782 39.0967 9.47318 39.1013 12.4453C39.1126 13.1488 39.184 13.85 39.3147 14.5413L20.888 22.9147C19.1182 21.2566 16.9027 20.1516 14.5135 19.7354C12.1244 19.3192 9.66566 19.6099 7.43947 20.5719C5.21329 21.5339 3.31658 23.1252 1.98237 25.1503C0.648162 27.1754 -0.0654423 29.5462 -0.0707707 31.9713C-0.0760991 34.3965 0.62708 36.7703 1.95238 38.8013C3.27768 40.8323 5.16737 42.4319 7.38931 43.4037C9.61124 44.3754 12.0686 44.677 14.4596 44.2713C16.8506 43.8656 19.071 42.7703 20.848 41.12L39.3227 49.4613C39.1943 50.152 39.1239 50.8523 39.112 51.5547C39.1115 54.0164 39.841 56.4229 41.2083 58.4699C42.5756 60.517 44.5193 62.1125 46.7935 63.0548C49.0677 63.9971 51.5702 64.2438 53.9846 63.7637C56.399 63.2836 58.6168 62.0982 60.3575 60.3575C62.0982 58.6169 63.2835 56.3991 63.7636 53.9847C64.2438 51.5702 63.9971 49.0677 63.0548 46.7935C62.1125 44.5193 60.5169 42.5756 58.4699 41.2083C56.4229 39.841 54.0163 39.1115 51.5547 39.112ZM51.5547 5.33332C52.9614 5.3328 54.3367 5.74946 55.5066 6.53062C56.6765 7.31177 57.5885 8.42233 58.1272 9.72183C58.6659 11.0213 58.8071 12.4514 58.533 13.8312C58.2589 15.2109 57.5817 16.4784 56.5872 17.4733C55.5927 18.4682 54.3254 19.1458 52.9458 19.4205C51.5661 19.6951 50.136 19.5544 48.8363 19.0162C47.5366 18.478 46.4257 17.5664 45.6441 16.3968C44.8625 15.2272 44.4453 13.8521 44.4453 12.4453C44.4467 10.56 45.1961 8.75226 46.529 7.41888C47.8619 6.08551 49.6693 5.33544 51.5547 5.33332ZM12.4453 39.112C11.0386 39.1125 9.66329 38.6959 8.49338 37.9147C7.32346 37.1336 6.41148 36.023 5.87278 34.7235C5.33408 33.424 5.19286 31.9939 5.46698 30.6142C5.7411 29.2344 6.41824 27.9669 7.41276 26.972C8.40729 25.9771 9.67452 25.2995 11.0542 25.0248C12.4339 24.7502 13.864 24.8909 15.1637 25.4291C16.4634 25.9673 17.5743 26.8789 18.3559 28.0485C19.1375 29.2181 19.5547 30.5933 19.5547 32C19.5525 33.8851 18.8029 35.6924 17.4702 37.0257C16.1375 38.3589 14.3304 39.1092 12.4453 39.112ZM51.5547 58.6667C50.148 58.6667 48.773 58.2496 47.6034 57.4681C46.4339 56.6866 45.5223 55.5759 44.984 54.2763C44.4457 52.9768 44.3049 51.5468 44.5793 50.1672C44.8537 48.7876 45.5311 47.5204 46.5257 46.5257C47.5203 45.5311 48.7876 44.8537 50.1672 44.5793C51.5468 44.3049 52.9767 44.4458 54.2763 44.984C55.5758 45.5223 56.6866 46.4339 57.4681 47.6035C58.2495 48.773 58.6667 50.1481 58.6667 51.5547C58.6652 53.4405 57.9155 55.2486 56.582 56.5821C55.2486 57.9155 53.4404 58.6653 51.5547 58.6667Z" fill="url(#paint0_linear)"/>
</g>
<defs>
<linearGradient id="paint0_linear" x1="-0.0708008" y1="64.0027" x2="68.3889" y2="58.9051" gradientUnits="userSpaceOnUse">
<stop stop-color="#EB9440"/>
<stop offset="0.302083" stop-color="#FA4259"/>
<stop offset="0.651042" stop-color="#CC4CC2"/>
<stop offset="1" stop-color="#7140FF"/>
</linearGradient>
<clipPath id="clip0">
<rect width="64" height="64" fill="white"/>
</clipPath>
</defs>
</svg>
