<svg width="64" height="64" viewBox="0 0 64 64" fill="none" xmlns="http://www.w3.org/2000/svg">
<path d="M18.6667 16H61.3333C62.0406 16 62.7189 15.7191 63.219 15.219C63.7191 14.7189 64 14.0406 64 13.3334C64 12.6261 63.7191 11.9478 63.219 11.4477C62.7189 10.9476 62.0406 10.6667 61.3333 10.6667H18.6667C17.9594 10.6667 17.2811 10.9476 16.781 11.4477C16.281 11.9478 16 12.6261 16 13.3334C16 14.0406 16.281 14.7189 16.781 15.219C17.2811 15.7191 17.9594 16 18.6667 16Z" fill="black"/>
<path d="M18.6667 16H61.3333C62.0406 16 62.7189 15.7191 63.219 15.219C63.7191 14.7189 64 14.0406 64 13.3334C64 12.6261 63.7191 11.9478 63.219 11.4477C62.7189 10.9476 62.0406 10.6667 61.3333 10.6667H18.6667C17.9594 10.6667 17.2811 10.9476 16.781 11.4477C16.281 11.9478 16 12.6261 16 13.3334C16 14.0406 16.281 14.7189 16.781 15.219C17.2811 15.7191 17.9594 16 18.6667 16Z" fill="url(#paint0_linear)"/>
<path d="M61.3333 29.3333H18.6667C17.9594 29.3333 17.2811 29.6143 16.781 30.1144C16.281 30.6145 16 31.2928 16 32C16 32.7073 16.281 33.3855 16.781 33.8856C17.2811 34.3857 17.9594 34.6667 18.6667 34.6667H61.3333C62.0406 34.6667 62.7189 34.3857 63.219 33.8856C63.7191 33.3855 64 32.7073 64 32C64 31.2928 63.7191 30.6145 63.219 30.1144C62.7189 29.6143 62.0406 29.3333 61.3333 29.3333Z" fill="black"/>
<path d="M61.3333 29.3333H18.6667C17.9594 29.3333 17.2811 29.6143 16.781 30.1144C16.281 30.6145 16 31.2928 16 32C16 32.7073 16.281 33.3855 16.781 33.8856C17.2811 34.3857 17.9594 34.6667 18.6667 34.6667H61.3333C62.0406 34.6667 62.7189 34.3857 63.219 33.8856C63.7191 33.3855 64 32.7073 64 32C64 31.2928 63.7191 30.6145 63.219 30.1144C62.7189 29.6143 62.0406 29.3333 61.3333 29.3333Z" fill="url(#paint1_linear)"/>
<path d="M61.3333 48H18.6667C17.9594 48 17.2811 48.281 16.781 48.781C16.281 49.2811 16 49.9594 16 50.6667C16 51.3739 16.281 52.0522 16.781 52.5523C17.2811 53.0524 17.9594 53.3333 18.6667 53.3333H61.3333C62.0406 53.3333 62.7189 53.0524 63.219 52.5523C63.7191 52.0522 64 51.3739 64 50.6667C64 49.9594 63.7191 49.2811 63.219 48.781C62.7189 48.281 62.0406 48 61.3333 48Z" fill="black"/>
<path d="M61.3333 48H18.6667C17.9594 48 17.2811 48.281 16.781 48.781C16.281 49.2811 16 49.9594 16 50.6667C16 51.3739 16.281 52.0522 16.781 52.5523C17.2811 53.0524 17.9594 53.3333 18.6667 53.3333H61.3333C62.0406 53.3333 62.7189 53.0524 63.219 52.5523C63.7191 52.0522 64 51.3739 64 50.6667C64 49.9594 63.7191 49.2811 63.219 48.781C62.7189 48.281 62.0406 48 61.3333 48Z" fill="url(#paint2_linear)"/>
<path d="M5.33333 18.6667C8.27885 18.6667 10.6667 16.2788 10.6667 13.3333C10.6667 10.3878 8.27885 8 5.33333 8C2.38781 8 0 10.3878 0 13.3333C0 16.2788 2.38781 18.6667 5.33333 18.6667Z" fill="black"/>
<path d="M5.33333 18.6667C8.27885 18.6667 10.6667 16.2788 10.6667 13.3333C10.6667 10.3878 8.27885 8 5.33333 8C2.38781 8 0 10.3878 0 13.3333C0 16.2788 2.38781 18.6667 5.33333 18.6667Z" fill="url(#paint3_linear)"/>
<path d="M5.33333 37.3333C8.27885 37.3333 10.6667 34.9455 10.6667 32C10.6667 29.0545 8.27885 26.6667 5.33333 26.6667C2.38781 26.6667 0 29.0545 0 32C0 34.9455 2.38781 37.3333 5.33333 37.3333Z" fill="black"/>
<path d="M5.33333 37.3333C8.27885 37.3333 10.6667 34.9455 10.6667 32C10.6667 29.0545 8.27885 26.6667 5.33333 26.6667C2.38781 26.6667 0 29.0545 0 32C0 34.9455 2.38781 37.3333 5.33333 37.3333Z" fill="url(#paint4_linear)"/>
<path d="M5.33333 56C8.27885 56 10.6667 53.6122 10.6667 50.6667C10.6667 47.7212 8.27885 45.3333 5.33333 45.3333C2.38781 45.3333 0 47.7212 0 50.6667C0 53.6122 2.38781 56 5.33333 56Z" fill="black"/>
<path d="M5.33333 56C8.27885 56 10.6667 53.6122 10.6667 50.6667C10.6667 47.7212 8.27885 45.3333 5.33333 45.3333C2.38781 45.3333 0 47.7212 0 50.6667C0 53.6122 2.38781 56 5.33333 56Z" fill="url(#paint5_linear)"/>
<defs>
<linearGradient id="paint0_linear" x1="16" y1="16" x2="51.6117" y2="-7.83925" gradientUnits="userSpaceOnUse">
<stop stop-color="#EB9440"/>
<stop offset="0.302083" stop-color="#FA4259"/>
<stop offset="0.651042" stop-color="#CC4CC2"/>
<stop offset="1" stop-color="#7140FF"/>
</linearGradient>
<linearGradient id="paint1_linear" x1="16" y1="34.6667" x2="51.6117" y2="10.8274" gradientUnits="userSpaceOnUse">
<stop stop-color="#EB9440"/>
<stop offset="0.302083" stop-color="#FA4259"/>
<stop offset="0.651042" stop-color="#CC4CC2"/>
<stop offset="1" stop-color="#7140FF"/>
</linearGradient>
<linearGradient id="paint2_linear" x1="16" y1="53.3333" x2="51.6118" y2="29.4941" gradientUnits="userSpaceOnUse">
<stop stop-color="#EB9440"/>
<stop offset="0.302083" stop-color="#FA4259"/>
<stop offset="0.651042" stop-color="#CC4CC2"/>
<stop offset="1" stop-color="#7140FF"/>
</linearGradient>
<linearGradient id="paint3_linear" x1="0" y1="18.6667" x2="11.397" y2="17.8189" gradientUnits="userSpaceOnUse">
<stop stop-color="#EB9440"/>
<stop offset="0.302083" stop-color="#FA4259"/>
<stop offset="0.651042" stop-color="#CC4CC2"/>
<stop offset="1" stop-color="#7140FF"/>
</linearGradient>
<linearGradient id="paint4_linear" x1="0" y1="37.3333" x2="11.397" y2="36.4856" gradientUnits="userSpaceOnUse">
<stop stop-color="#EB9440"/>
<stop offset="0.302083" stop-color="#FA4259"/>
<stop offset="0.651042" stop-color="#CC4CC2"/>
<stop offset="1" stop-color="#7140FF"/>
</linearGradient>
<linearGradient id="paint5_linear" x1="0" y1="56" x2="11.397" y2="55.1523" gradientUnits="userSpaceOnUse">
<stop stop-color="#EB9440"/>
<stop offset="0.302083" stop-color="#FA4259"/>
<stop offset="0.651042" stop-color="#CC4CC2"/>
<stop offset="1" stop-color="#7140FF"/>
</linearGradient>
</defs>
</svg>
